<mxfile host="app.diagrams.net" modified="2024-04-08T14:08:24.982Z" agent="Mozilla/5.0 (Macintosh; Intel Mac OS X 10.15; rv:124.0) Gecko/20100101 Firefox/124.0" etag="PRo8fpjm0zeGv9oLPzO5" version="24.0.7" type="github">
  <diagram name="Page-1" id="wm7SElcNYOO90uaBKWTg">
    <mxGraphModel dx="1026" dy="1758" grid="1" gridSize="10" guides="1" tooltips="1" connect="1" arrows="1" fold="1" page="1" pageScale="1" pageWidth="850" pageHeight="1100" math="0" shadow="0">
      <root>
        <mxCell id="0" />
        <mxCell id="1" parent="0" />
        <mxCell id="D4-E4xzbiV9R9xf7tMej-1" value="&lt;div style=&quot;font-size: 21px;&quot;&gt;&lt;div class=&quot;row&quot;&gt;&lt;br&gt;            &lt;div class=&quot;col-sm-12 title no-padding&quot;&gt;&lt;br&gt;               &lt;b&gt;&lt;span class=&quot;object-title&quot;&gt;angounou-md-red4-nessus&lt;/span&gt;&lt;/b&gt;&lt;br&gt;            &lt;/div&gt;&lt;br&gt;         &lt;/div&gt;&lt;/div&gt;&lt;div style=&quot;font-size: 21px;&quot;&gt;&lt;font style=&quot;font-size: 21px;&quot;&gt;Tenable Nessus Server&lt;br&gt;&lt;/font&gt;&lt;/div&gt;&lt;div style=&quot;font-size: 21px;&quot;&gt;&lt;font style=&quot;font-size: 21px;&quot;&gt;10.1.15.161&lt;/font&gt;&lt;/div&gt;&lt;div style=&quot;font-size: 21px;&quot;&gt;&lt;font style=&quot;font-size: 21px;&quot;&gt;&lt;font style=&quot;font-size: 21px;&quot;&gt;Tenable Nessus App Installed&lt;/font&gt;&lt;br&gt;&lt;/font&gt;&lt;/div&gt;&lt;div style=&quot;font-size: 21px;&quot;&gt;&lt;font style=&quot;font-size: 21px;&quot;&gt;Multi-user Target Enabled&lt;br&gt;&lt;/font&gt;&lt;/div&gt;&lt;div style=&quot;font-size: 21px;&quot;&gt;&lt;font style=&quot;font-size: 21px;&quot;&gt;&lt;br&gt;&lt;/font&gt;&lt;/div&gt;&lt;div style=&quot;font-size: 21px;&quot;&gt;&lt;font style=&quot;font-size: 21px;&quot;&gt;Ports Enabled: 8834, 443, Cockpit&lt;/font&gt;&lt;/div&gt;&lt;div style=&quot;font-size: 21px;&quot;&gt;&lt;font style=&quot;font-size: 21px;&quot;&gt;DHCPv6-Client, SSH&lt;br&gt;&lt;/font&gt;&lt;/div&gt;&lt;div style=&quot;font-size: 21px;&quot;&gt;&lt;font style=&quot;font-size: 21px;&quot;&gt;&lt;b&gt;&lt;br&gt;&lt;/b&gt;&lt;/font&gt;&lt;/div&gt;" style="sketch=0;pointerEvents=1;shadow=0;dashed=0;html=1;strokeColor=none;fillColor=#005F4B;labelPosition=center;verticalLabelPosition=bottom;verticalAlign=top;align=center;outlineConnect=0;shape=mxgraph.veeam2.linux_server;" parent="1" vertex="1">
          <mxGeometry x="120" y="120" width="190" height="250" as="geometry" />
        </mxCell>
        <mxCell id="D4-E4xzbiV9R9xf7tMej-4" value="&lt;div style=&quot;font-size: 21px;&quot;&gt;&lt;font style=&quot;font-size: 21px;&quot;&gt;&lt;b&gt;Windows Server 1&lt;br&gt;&lt;/b&gt;&lt;/font&gt;&lt;/div&gt;&lt;div style=&quot;font-size: 21px;&quot;&gt;&lt;font style=&quot;font-size: 21px;&quot;&gt;&lt;b&gt;10.1.15.#&lt;/b&gt;&lt;/font&gt;&lt;/div&gt;&lt;div style=&quot;font-size: 21px;&quot;&gt;&lt;font style=&quot;font-size: 21px;&quot;&gt;&lt;b&gt;Firefox Installed&lt;br&gt;&lt;/b&gt;&lt;/font&gt;&lt;/div&gt;&lt;div style=&quot;font-size: 21px;&quot;&gt;&lt;font style=&quot;font-size: 21px;&quot;&gt;&lt;b&gt;GUI Enabled&lt;/b&gt;&lt;/font&gt;&lt;/div&gt;&lt;div style=&quot;font-size: 21px;&quot;&gt;&lt;font style=&quot;font-size: 21px;&quot;&gt;&lt;b&gt;&lt;br&gt;&lt;br&gt;&lt;/b&gt;&lt;/font&gt;&lt;/div&gt;" style="sketch=0;pointerEvents=1;shadow=0;dashed=0;html=1;strokeColor=none;fillColor=#005F4B;labelPosition=center;verticalLabelPosition=bottom;verticalAlign=top;align=center;outlineConnect=0;shape=mxgraph.veeam2.windows_server;" parent="1" vertex="1">
          <mxGeometry x="560" y="120" width="220" height="250" as="geometry" />
        </mxCell>
        <mxCell id="D4-E4xzbiV9R9xf7tMej-6" value="" style="curved=1;endArrow=classic;html=1;rounded=0;" parent="1" source="D4-E4xzbiV9R9xf7tMej-11" target="D4-E4xzbiV9R9xf7tMej-10" edge="1">
          <mxGeometry width="50" height="50" relative="1" as="geometry">
            <mxPoint x="310" y="340.9677419354839" as="sourcePoint" />
            <mxPoint x="340" y="240" as="targetPoint" />
            <Array as="points">
              <mxPoint x="360" y="330" />
              <mxPoint x="340" y="280" />
              <mxPoint x="350" y="240" />
            </Array>
          </mxGeometry>
        </mxCell>
        <mxCell id="D4-E4xzbiV9R9xf7tMej-7" value="" style="endArrow=classic;html=1;rounded=0;" parent="1" target="D4-E4xzbiV9R9xf7tMej-16" edge="1">
          <mxGeometry width="50" height="50" relative="1" as="geometry">
            <mxPoint x="630" y="232.52777777777771" as="sourcePoint" />
            <mxPoint x="380" y="173.5" as="targetPoint" />
          </mxGeometry>
        </mxCell>
        <mxCell id="D4-E4xzbiV9R9xf7tMej-10" value="Tenable Nessus" style="sketch=0;outlineConnect=0;dashed=0;verticalLabelPosition=bottom;verticalAlign=top;align=center;html=1;fontSize=12;fontStyle=0;aspect=fixed;shape=mxgraph.aws4.resourceIcon;resIcon=mxgraph.aws4.application;" parent="1" vertex="1">
          <mxGeometry x="170" y="136.5" width="50" height="50" as="geometry" />
        </mxCell>
        <mxCell id="D4-E4xzbiV9R9xf7tMej-11" value="&lt;div&gt;&lt;b&gt;FireFox&lt;/b&gt;&lt;/div&gt;" style="shape=image;html=1;verticalAlign=top;verticalLabelPosition=bottom;labelBackgroundColor=#ffffff;imageAspect=0;aspect=fixed;image=https://cdn2.iconfinder.com/data/icons/browsers/Firefox.png" parent="1" vertex="1">
          <mxGeometry x="240" y="220" width="48" height="48" as="geometry" />
        </mxCell>
        <mxCell id="D4-E4xzbiV9R9xf7tMej-12" value="&lt;div&gt;&lt;b&gt;FireFox&lt;/b&gt;&lt;/div&gt;" style="shape=image;html=1;verticalAlign=top;verticalLabelPosition=bottom;labelBackgroundColor=#ffffff;imageAspect=0;aspect=fixed;image=https://cdn2.iconfinder.com/data/icons/browsers/Firefox.png" parent="1" vertex="1">
          <mxGeometry x="600" y="210" width="48" height="48" as="geometry" />
        </mxCell>
        <mxCell id="D4-E4xzbiV9R9xf7tMej-13" value="&lt;b&gt;GUI&lt;/b&gt;" style="sketch=0;aspect=fixed;pointerEvents=1;shadow=0;dashed=0;html=1;strokeColor=none;labelPosition=center;verticalLabelPosition=bottom;verticalAlign=top;align=center;fillColor=#00188D;shape=mxgraph.mscae.enterprise.mouse" parent="1" vertex="1">
          <mxGeometry x="730" y="130" width="30" height="50" as="geometry" />
        </mxCell>
        <mxCell id="D4-E4xzbiV9R9xf7tMej-14" value="&lt;div&gt;&lt;font style=&quot;font-size: 29px;&quot;&gt;Steps to Deploy Nessus Server&lt;/font&gt;&lt;/div&gt;&lt;ol style=&quot;font-size: 24px;&quot;&gt;&lt;li&gt;Build Virtual Machine&lt;/li&gt;&lt;li&gt;Install Tenable Nessus&lt;/li&gt;&lt;li&gt;Harden the OS&lt;br&gt;&lt;/li&gt;&lt;/ol&gt;" style="text;html=1;align=center;verticalAlign=middle;resizable=0;points=[];autosize=1;strokeColor=#b85450;fillColor=#f8cecc;" parent="1" vertex="1">
          <mxGeometry x="420" y="510" width="430" height="180" as="geometry" />
        </mxCell>
        <mxCell id="D4-E4xzbiV9R9xf7tMej-15" value="CLI" style="sketch=0;outlineConnect=0;dashed=0;verticalLabelPosition=bottom;verticalAlign=top;align=center;html=1;fontSize=12;fontStyle=0;aspect=fixed;pointerEvents=1;shape=mxgraph.aws4.ecs_copilot_cli;" parent="1" vertex="1">
          <mxGeometry x="260" y="136.5" width="40.36" height="37" as="geometry" />
        </mxCell>
        <mxCell id="D4-E4xzbiV9R9xf7tMej-16" value="" style="image;html=1;image=img/lib/clip_art/networking/Firewall_02_128x128.png" parent="1" vertex="1">
          <mxGeometry x="300.36" y="100" width="80" height="80" as="geometry" />
        </mxCell>
        <mxCell id="D4-E4xzbiV9R9xf7tMej-17" value="" style="sketch=0;html=1;aspect=fixed;strokeColor=none;shadow=0;align=center;fillColor=#2D9C5E;verticalAlign=top;labelPosition=center;verticalLabelPosition=bottom;shape=mxgraph.gcp2.check" parent="1" vertex="1">
          <mxGeometry x="460" y="160" width="70.63" height="56.5" as="geometry" />
        </mxCell>
        <mxCell id="D4-E4xzbiV9R9xf7tMej-18" value="&lt;div style=&quot;font-size: 21px;&quot;&gt;&lt;font style=&quot;font-size: 21px;&quot;&gt;&lt;b&gt;Windows Server 2&lt;br&gt;&lt;/b&gt;&lt;/font&gt;&lt;/div&gt;&lt;div style=&quot;font-size: 21px;&quot;&gt;&lt;font style=&quot;font-size: 21px;&quot;&gt;&lt;b&gt;10.1.15.#&lt;/b&gt;&lt;/font&gt;&lt;/div&gt;&lt;div style=&quot;font-size: 21px;&quot;&gt;&lt;font style=&quot;font-size: 21px;&quot;&gt;&lt;b&gt;Firefox Installed&lt;br&gt;&lt;/b&gt;&lt;/font&gt;&lt;/div&gt;&lt;div style=&quot;font-size: 21px;&quot;&gt;&lt;font style=&quot;font-size: 21px;&quot;&gt;&lt;b&gt;GUI Enabled&lt;/b&gt;&lt;/font&gt;&lt;/div&gt;&lt;div style=&quot;font-size: 21px;&quot;&gt;&lt;font style=&quot;font-size: 21px;&quot;&gt;&lt;b&gt;&lt;br&gt;&lt;br&gt;&lt;/b&gt;&lt;/font&gt;&lt;/div&gt;" style="sketch=0;pointerEvents=1;shadow=0;dashed=0;html=1;strokeColor=none;fillColor=#005F4B;labelPosition=center;verticalLabelPosition=bottom;verticalAlign=top;align=center;outlineConnect=0;shape=mxgraph.veeam2.windows_server;" parent="1" vertex="1">
          <mxGeometry x="570" y="-280" width="220" height="250" as="geometry" />
        </mxCell>
        <mxCell id="D4-E4xzbiV9R9xf7tMej-19" value="" style="endArrow=classic;html=1;rounded=0;" parent="1" source="D4-E4xzbiV9R9xf7tMej-22" target="D4-E4xzbiV9R9xf7tMej-16" edge="1">
          <mxGeometry width="50" height="50" relative="1" as="geometry">
            <mxPoint x="600" y="-50.472222222222285" as="sourcePoint" />
            <mxPoint x="350" y="-130" as="targetPoint" />
          </mxGeometry>
        </mxCell>
        <mxCell id="D4-E4xzbiV9R9xf7tMej-20" value="&lt;div&gt;&lt;b&gt;FireFox&lt;/b&gt;&lt;/div&gt;" style="shape=image;html=1;verticalAlign=top;verticalLabelPosition=bottom;labelBackgroundColor=#ffffff;imageAspect=0;aspect=fixed;image=https://cdn2.iconfinder.com/data/icons/browsers/Firefox.png" parent="1" vertex="1">
          <mxGeometry x="620" y="-200" width="48" height="48" as="geometry" />
        </mxCell>
        <mxCell id="D4-E4xzbiV9R9xf7tMej-21" value="&lt;div&gt;HTTPD&lt;/div&gt;&lt;div&gt;&lt;br&gt;&lt;/div&gt;" style="outlineConnect=0;dashed=0;verticalLabelPosition=bottom;verticalAlign=top;align=center;html=1;shape=mxgraph.aws3.application;" parent="1" vertex="1">
          <mxGeometry x="160" y="227.75" width="30" height="34.5" as="geometry" />
        </mxCell>
        <mxCell id="D4-E4xzbiV9R9xf7tMej-23" value="" style="endArrow=classic;html=1;rounded=0;" parent="1" source="D4-E4xzbiV9R9xf7tMej-20" target="D4-E4xzbiV9R9xf7tMej-22" edge="1">
          <mxGeometry width="50" height="50" relative="1" as="geometry">
            <mxPoint x="621" y="-152" as="sourcePoint" />
            <mxPoint x="379" y="100" as="targetPoint" />
          </mxGeometry>
        </mxCell>
        <mxCell id="D4-E4xzbiV9R9xf7tMej-22" value="" style="sketch=0;html=1;aspect=fixed;strokeColor=none;shadow=0;align=center;fillColor=#2D9C5E;verticalAlign=top;labelPosition=center;verticalLabelPosition=bottom;shape=mxgraph.gcp2.check" parent="1" vertex="1">
          <mxGeometry x="480" y="-70" width="70.63" height="56.5" as="geometry" />
        </mxCell>
      </root>
    </mxGraphModel>
  </diagram>
</mxfile>
